# Blender v2.79 (sub 0) OBJ File: 'knife.blend'
# www.blender.org
mtllib knife.mtl
o Cube
v 0.057655 0.259466 0.024154
v -0.009428 1.139221 0.008105
v 0.057655 0.228163 0.024154
v -0.059504 0.227850 0.024154
v 0.105114 0.259466 0.024154
v 0.105114 0.228163 0.024154
v -0.121366 0.249678 0.024153
v -0.120511 0.212678 0.024153
v -0.178796 0.197464 0.024153
v -0.165766 0.177842 0.024153
v 0.057655 0.259466 0.037197
v -0.065499 0.259466 0.037197
v 0.057655 0.228163 0.037197
v -0.059504 0.227850 0.037197
v 0.105114 0.259466 0.037197
v 0.105114 0.228163 0.037197
v -0.121366 0.249678 0.037197
v -0.120511 0.212678 0.037197
v -0.178796 0.197464 0.037196
v -0.165766 0.177842 0.037196
v 0.023206 -0.224984 0.024154
v -0.022119 -0.223789 0.024154
v 0.057701 0.176355 0.024154
v 0.057747 0.084248 0.024154
v 0.057793 -0.084994 0.024154
v -0.059458 0.176042 0.024154
v -0.059412 0.083934 0.024154
v -0.088196 -0.085308 0.024154
v 0.045386 -0.198206 0.021872
v -0.061329 -0.198460 0.021872
v 0.063760 -0.000912 0.024154
v -0.054551 -0.001226 0.024154
v 0.057724 0.130301 0.024154
v -0.078306 0.129988 0.024154
v 0.057655 0.344668 0.028026
v 0.057655 0.814001 0.016259
v 0.057655 0.301982 0.024154
v 0.017757 0.906145 0.013949
v 0.002616 0.998289 0.011638
v -0.008242 1.090433 0.009328
v 0.057655 0.259466 -0.024154
v -0.065499 0.259466 0.000000
v -0.009428 1.139221 -0.008105
v -0.015328 1.166108 0.000000
v 0.057655 0.259466 0.000000
v -0.065499 0.259466 0.000000
v -0.009427 1.139301 0.000000
v -0.015328 1.166197 0.000000
v 0.057655 0.228163 -0.024154
v -0.059504 0.227850 -0.024154
v 0.057655 0.228163 0.000000
v -0.059504 0.227850 0.000000
v 0.105114 0.259466 -0.024154
v 0.105114 0.259466 0.000000
v 0.105114 0.228163 -0.024154
v 0.105114 0.228163 0.000000
v -0.121366 0.249678 -0.024153
v -0.121366 0.249678 0.000000
v -0.120511 0.212678 -0.024153
v -0.120511 0.212678 0.000000
v -0.178796 0.197464 -0.024153
v -0.178795 0.197464 0.000000
v -0.165766 0.177842 -0.024153
v -0.165766 0.177842 0.000000
v 0.057655 0.259466 -0.037197
v -0.065499 0.259466 -0.037197
v 0.057655 0.228163 -0.037197
v -0.059504 0.227850 -0.037197
v 0.105114 0.259466 -0.037197
v 0.105114 0.228163 -0.037197
v -0.121366 0.249678 -0.037197
v -0.120511 0.212678 -0.037197
v -0.178796 0.197464 -0.037196
v -0.165766 0.177842 -0.037196
v 0.023206 -0.224984 -0.024154
v -0.022119 -0.223789 -0.024154
v 0.023206 -0.224984 0.000000
v -0.022119 -0.223789 0.000000
v 0.057701 0.176355 -0.024154
v 0.057747 0.084248 -0.024154
v 0.057793 -0.084994 -0.024154
v 0.057793 -0.084994 0.000000
v 0.057747 0.084248 0.000000
v 0.057701 0.176355 0.000000
v -0.088196 -0.085308 0.000000
v -0.059412 0.083935 0.000000
v -0.059458 0.176042 0.000000
v -0.059458 0.176042 -0.024154
v -0.059412 0.083934 -0.024154
v -0.088196 -0.085308 -0.024154
v 0.045386 -0.198206 -0.021872
v -0.061329 -0.198460 -0.021872
v 0.045386 -0.198206 0.000000
v -0.061329 -0.198460 0.000000
v 0.063760 -0.000912 -0.024154
v 0.063760 -0.000912 0.000000
v -0.054551 -0.001226 0.000000
v -0.054551 -0.001226 -0.024154
v 0.057724 0.130301 -0.024154
v 0.057724 0.130301 0.000000
v -0.078305 0.129988 0.000000
v -0.078306 0.129988 -0.024154
v 0.057655 0.344668 -0.028026
v 0.057655 0.814001 -0.016259
v -0.101068 0.344668 0.000000
v -0.101068 0.814001 0.000000
v -0.101068 0.813979 0.000000
v -0.101068 0.344498 0.000000
v 0.057655 0.813979 0.000000
v 0.057655 0.344498 0.000000
v -0.066203 0.301982 0.000000
v 0.057655 0.301982 0.000000
v 0.057655 0.301982 -0.024154
v -0.066203 0.301982 0.000000
v 0.017757 0.906145 -0.013949
v 0.002616 0.998289 -0.011638
v -0.008242 1.090433 -0.009328
v -0.090285 0.906145 0.000000
v -0.071864 0.998289 0.000000
v -0.045281 1.090433 0.000000
v -0.045281 1.090498 0.000000
v -0.071864 0.998325 0.000000
v -0.090285 0.906152 0.000000
v -0.008242 1.090498 0.000000
v 0.002616 0.998325 0.000000
v 0.017757 0.906152 0.000000
vn 0.6100 -0.7924 0.0000
vn 0.9766 0.2150 0.0046
vn 0.9997 0.0243 0.0003
vn -0.3286 0.0852 0.9406
vn 0.7701 -0.6379 0.0000
vn -0.1726 0.9850 -0.0000
vn 0.0000 -1.0000 0.0000
vn 1.0000 0.0000 0.0000
vn 0.0000 1.0000 0.0000
vn 0.0027 -1.0000 -0.0000
vn -0.6727 0.7399 -0.0000
vn 0.2413 -0.9704 -0.0000
vn -0.8331 -0.5532 -0.0000
vn -0.0000 -0.0000 1.0000
vn -0.0263 -0.9997 -0.0000
vn 0.0005 0.0874 0.9962
vn -0.5426 -0.8400 -0.0000
vn -1.0000 -0.0009 -0.0000
vn -0.9252 -0.3795 -0.0000
vn -0.9284 0.3715 -0.0000
vn 1.0000 0.0009 0.0000
vn 1.0000 0.0005 -0.0000
vn 0.9975 -0.0708 0.0000
vn -0.9729 -0.2310 -0.0000
vn 0.0000 -0.0202 0.9998
vn 0.9940 -0.1089 0.0000
vn 0.9975 0.0704 -0.0000
vn -0.9984 -0.0570 -0.0000
vn -0.9255 0.3788 -0.0000
vn -0.1803 -0.1179 0.9765
vn -0.1382 0.0124 0.9903
vn -0.1919 -0.0016 0.9814
vn -0.1125 -0.0053 0.9936
vn -0.1388 0.0149 0.9902
vn -0.1847 0.0281 0.9824
vn 0.9177 0.3973 -0.0002
vn 0.9868 0.1621 0.0003
vn 0.9931 0.1170 0.0006
vn 0.9766 0.2150 -0.0046
vn 0.9997 0.0243 -0.0003
vn -0.3286 0.0852 -0.9406
vn 0.0000 0.0000 -1.0000
vn 0.0005 0.0874 -0.9962
vn 0.0000 -0.0202 -0.9998
vn -0.1803 -0.1179 -0.9765
vn -0.1382 0.0124 -0.9903
vn -0.1919 -0.0016 -0.9814
vn -0.1125 -0.0053 -0.9936
vn -0.1388 0.0149 -0.9902
vn -0.1847 0.0281 -0.9824
vn 0.9177 0.3973 0.0002
vn 0.9868 0.1621 -0.0003
vn 0.9931 0.1170 -0.0006
usemtl Material
s off
f 10//1 8//1 18//1 20//1
f 47//2 48//2 44//2 2//2
f 124//3 47//3 2//3 40//3
f 40//4 2//4 44//4 120//4
f 93//5 29//5 21//5 77//5
f 42//6 46//6 58//6 7//6
f 3//7 51//7 56//7 6//7
f 54//8 5//8 6//8 56//8
f 5//9 1//9 11//9 15//9
f 45//9 1//9 5//9 54//9
f 4//10 3//10 13//10 14//10
f 7//11 9//11 19//11 17//11
f 52//12 4//12 8//12 60//12
f 9//13 62//13 64//13 10//13
f 7//11 58//11 62//11 9//11
f 60//1 8//1 10//1 64//1
f 11//14 12//14 14//14 13//14
f 11//14 13//14 16//14 15//14
f 18//14 17//14 19//14 20//14
f 14//14 12//14 17//14 18//14
f 9//13 10//13 20//13 19//13
f 8//12 4//12 14//12 18//12
f 1//9 42//9 12//9 11//9
f 3//7 6//7 16//7 13//7
f 6//8 5//8 15//8 16//8
f 42//6 7//6 17//6 12//6
f 77//15 21//15 22//15 78//15
f 29//16 30//16 22//16 21//16
f 30//17 94//17 78//17 22//17
f 4//18 52//18 87//18 26//18
f 34//19 101//19 86//19 27//19
f 32//20 97//20 85//20 28//20
f 3//14 4//14 26//14 23//14
f 33//14 34//14 27//14 24//14
f 31//14 32//14 28//14 25//14
f 51//21 3//21 23//21 84//21
f 100//22 33//22 24//22 83//22
f 96//23 31//23 25//23 82//23
f 28//24 85//24 94//24 30//24
f 25//25 28//25 30//25 29//25
f 82//26 25//26 29//26 93//26
f 83//27 24//27 31//27 96//27
f 24//14 27//14 32//14 31//14
f 27//28 86//28 97//28 32//28
f 84//22 23//22 33//22 100//22
f 23//14 26//14 34//14 33//14
f 26//29 87//29 101//29 34//29
f 37//30 35//30 105//30 114//30
f 35//31 36//31 106//31 105//31
f 112//8 110//8 35//8 37//8
f 110//8 109//8 36//8 35//8
f 45//8 112//8 37//8 1//8
f 1//32 37//32 114//32 42//32
f 36//33 38//33 118//33 106//33
f 38//34 39//34 119//34 118//34
f 39//35 40//35 120//35 119//35
f 109//36 126//36 38//36 36//36
f 126//37 125//37 39//37 38//37
f 125//38 124//38 40//38 39//38
f 63//1 74//1 72//1 59//1
f 47//39 43//39 44//39 48//39
f 124//40 117//40 43//40 47//40
f 117//41 120//41 44//41 43//41
f 120//42 121//42 48//42 44//42
f 93//5 77//5 75//5 91//5
f 42//6 57//6 58//6 46//6
f 49//7 55//7 56//7 51//7
f 46//14 52//14 51//14 45//14
f 54//8 56//8 55//8 53//8
f 51//14 56//14 54//14 45//14
f 53//9 69//9 65//9 41//9
f 45//9 54//9 53//9 41//9
f 50//10 68//10 67//10 49//10
f 46//14 58//14 60//14 52//14
f 57//11 71//11 73//11 61//11
f 52//12 60//12 59//12 50//12
f 61//13 63//13 64//13 62//13
f 57//11 61//11 62//11 58//11
f 58//14 62//14 64//14 60//14
f 60//1 64//1 63//1 59//1
f 65//42 67//42 68//42 66//42
f 65//42 69//42 70//42 67//42
f 72//42 74//42 73//42 71//42
f 68//42 72//42 71//42 66//42
f 61//13 73//13 74//13 63//13
f 59//12 72//12 68//12 50//12
f 41//9 65//9 66//9 42//9
f 49//7 67//7 70//7 55//7
f 55//8 70//8 69//8 53//8
f 42//6 66//6 71//6 57//6
f 77//15 78//15 76//15 75//15
f 94//14 78//14 77//14 93//14
f 91//43 75//43 76//43 92//43
f 92//17 76//17 78//17 94//17
f 50//18 88//18 87//18 52//18
f 102//19 89//19 86//19 101//19
f 98//20 90//20 85//20 97//20
f 49//42 79//42 88//42 50//42
f 99//42 80//42 89//42 102//42
f 95//42 81//42 90//42 98//42
f 52//14 87//14 84//14 51//14
f 101//14 86//14 83//14 100//14
f 97//14 85//14 82//14 96//14
f 51//21 84//21 79//21 49//21
f 100//22 83//22 80//22 99//22
f 96//23 82//23 81//23 95//23
f 90//24 92//24 94//24 85//24
f 81//44 91//44 92//44 90//44
f 85//14 94//14 93//14 82//14
f 82//26 93//26 91//26 81//26
f 83//27 96//27 95//27 80//27
f 86//14 97//14 96//14 83//14
f 80//42 95//42 98//42 89//42
f 89//28 98//28 97//28 86//28
f 84//22 100//22 99//22 79//22
f 87//14 101//14 100//14 84//14
f 79//42 99//42 102//42 88//42
f 88//29 102//29 101//29 87//29
f 114//42 111//42 108//42 105//42
f 105//14 108//14 107//14 106//14
f 113//45 114//45 105//45 103//45
f 103//46 105//46 106//46 104//46
f 112//8 113//8 103//8 110//8
f 110//8 103//8 104//8 109//8
f 45//8 41//8 113//8 112//8
f 41//47 42//47 114//47 113//47
f 42//14 46//14 111//14 114//14
f 106//14 107//14 123//14 118//14
f 118//42 123//42 122//42 119//42
f 119//42 122//42 121//42 120//42
f 104//48 106//48 118//48 115//48
f 115//49 118//49 119//49 116//49
f 116//50 119//50 120//50 117//50
f 109//51 104//51 115//51 126//51
f 126//52 115//52 116//52 125//52
f 125//53 116//53 117//53 124//53
